<svg xmlns="http://www.w3.org/2000/svg" width="1366" height="768" viewBox="0 0 1366 768">
  <rect width="1366" height="768" fill="#EFF6FF"/>
  <rect x="0" y="0" width="1366" height="7" fill="#0891B2"/>
  <rect x="80" y="18" width="130" height="28" rx="6" fill="#d5f0f5" stroke="#0891B2"/>
  <rect x="1120" y="18" width="80" height="28" rx="6" fill="#d5f0f5" stroke="#0891B2"/>
  <rect x="1220" y="18" width="80" height="28" rx="6" fill="#FFFFFF" stroke="#CBE0EF"/>
  <rect x="80" y="60" width="730" height="64" rx="10" fill="#FFFFFF" stroke="#449fb4" stroke-opacity="0.45"/>
  <rect x="80" y="132" width="1206" height="1.2" fill="#CBE0EF"/>

  <rect x="80" y="160" width="860" height="540" rx="10" fill="#FFFFFF" stroke="#449fb4" stroke-opacity="0.45"/>
  <rect x="80" y="160" width="5" height="540" fill="#0891B2"/>
  <rect x="86" y="160" width="854" height="38" fill="#0891B2" opacity="0.12"/>
  <rect x="120" y="580" width="760" height="2" fill="#CBE0EF"/>
  <rect x="120" y="260" width="2" height="322" fill="#CBE0EF"/>
  <rect x="170" y="500" width="66" height="80" fill="#BAE6FD"/>
  <rect x="265" y="460" width="66" height="120" fill="#89d5f2"/>
  <rect x="360" y="430" width="66" height="150" fill="#5bc4ea"/>
  <rect x="455" y="390" width="66" height="190" fill="#38BDF8"/>
  <rect x="550" y="340" width="66" height="240" fill="#0EA5E9"/>
  <rect x="645" y="300" width="66" height="280" fill="#0284C7"/>
  <polyline points="170,510 298,470 393,440 488,402 583,352 678,312" fill="none" stroke="#082F49" stroke-width="3"/>

  <rect x="960" y="160" width="326" height="540" rx="10" fill="#FFFFFF" stroke="#449fb4" stroke-opacity="0.45"/>
  <rect x="960" y="160" width="5" height="540" fill="#0891B2"/>
  <rect x="966" y="160" width="320" height="38" fill="#0891B2" opacity="0.12"/>
  <circle cx="996" cy="230" r="14" fill="#d5f0f5" stroke="#0891B2"/>
  <circle cx="996" cy="278" r="14" fill="#d5f0f5" stroke="#0891B2"/>
  <circle cx="996" cy="326" r="14" fill="#d5f0f5" stroke="#0891B2"/>
  <rect x="1024" y="222" width="220" height="16" rx="3" fill="#eef7fd"/>
  <rect x="1024" y="270" width="200" height="16" rx="3" fill="#eef7fd"/>
  <rect x="1024" y="318" width="210" height="16" rx="3" fill="#eef7fd"/>
</svg>
