<svg xmlns="http://www.w3.org/2000/svg" width="1366" height="768" viewBox="0 0 1366 768">
  <rect width="1366" height="768" fill="#EFF6FF"/>
  <rect x="0" y="0" width="1366" height="7" fill="#0369A1"/>
  <rect x="80" y="18" width="130" height="28" rx="6" fill="#d3e7f1" stroke="#0369A1"/>
  <rect x="1120" y="18" width="80" height="28" rx="6" fill="#d3e7f1" stroke="#0369A1"/>
  <rect x="1220" y="18" width="80" height="28" rx="6" fill="#FFFFFF" stroke="#CBE0EF"/>
  <rect x="80" y="60" width="730" height="64" rx="10" fill="#FFFFFF" stroke="#3a83aa" stroke-opacity="0.45"/>
  <rect x="80" y="132" width="1206" height="1.2" fill="#CBE0EF"/>

  <g>
    <rect x="80" y="160" width="282" height="540" rx="10" fill="#FFFFFF" stroke="#3a83aa" stroke-opacity="0.45"/>
    <rect x="80" y="160" width="5" height="540" fill="#0369A1"/>
    <rect x="86" y="160" width="276" height="38" fill="#0369A1" opacity="0.12"/>
  </g>
  <g>
    <rect x="388" y="160" width="282" height="540" rx="10" fill="#FFFFFF" stroke="#3a83aa" stroke-opacity="0.45"/>
    <rect x="388" y="160" width="5" height="540" fill="#0369A1"/>
    <rect x="394" y="160" width="276" height="38" fill="#0369A1" opacity="0.12"/>
  </g>
  <g>
    <rect x="696" y="160" width="282" height="540" rx="10" fill="#FFFFFF" stroke="#3a83aa" stroke-opacity="0.45"/>
    <rect x="696" y="160" width="5" height="540" fill="#0369A1"/>
    <rect x="702" y="160" width="276" height="38" fill="#0369A1" opacity="0.12"/>
  </g>
  <g>
    <rect x="1004" y="160" width="282" height="540" rx="10" fill="#FFFFFF" stroke="#3a83aa" stroke-opacity="0.45"/>
    <rect x="1004" y="160" width="5" height="540" fill="#0369A1"/>
    <rect x="1010" y="160" width="276" height="38" fill="#0369A1" opacity="0.12"/>
  </g>
</svg>
