<svg xmlns="http://www.w3.org/2000/svg" width="1366" height="768" viewBox="0 0 1366 768">
  <rect width="1366" height="768" fill="#EFF6FF"/>
  <rect x="0" y="0" width="1366" height="7" fill="#38BDF8"/>
  <rect x="0" y="0" width="10" height="768" fill="#38BDF8"/>
  <ellipse cx="1210" cy="-40" rx="330" ry="240" fill="#38BDF8" opacity="0.12"/>
  <rect x="80" y="18" width="130" height="28" rx="6" fill="#dff5fd" stroke="#38BDF8"/>
  <rect x="1120" y="18" width="80" height="28" rx="6" fill="#dff5fd" stroke="#38BDF8"/>
  <rect x="1220" y="18" width="80" height="28" rx="6" fill="#FFFFFF" stroke="#CBE0EF"/>
  <rect x="80" y="60" width="700" height="64" rx="10" fill="#FFFFFF" stroke="#66c7ef" stroke-opacity="0.45"/>
  <rect x="80" y="132" width="1206" height="1.2" fill="#CBE0EF"/>

  <rect x="80" y="160" width="592" height="254" rx="10" fill="#FFFFFF" stroke="#66c7ef" stroke-opacity="0.45"/>
  <rect x="80" y="160" width="5" height="254" fill="#38BDF8"/>
  <rect x="86" y="160" width="586" height="38" fill="#38BDF8" opacity="0.12"/>

  <rect x="694" y="160" width="592" height="254" rx="10" fill="#FFFFFF" stroke="#66c7ef" stroke-opacity="0.45"/>
  <rect x="694" y="160" width="5" height="254" fill="#38BDF8"/>
  <rect x="700" y="160" width="586" height="38" fill="#38BDF8" opacity="0.12"/>

  <rect x="80" y="446" width="1206" height="254" rx="10" fill="#FFFFFF" stroke="#66c7ef" stroke-opacity="0.45"/>
  <rect x="80" y="446" width="5" height="254" fill="#38BDF8"/>
  <rect x="86" y="446" width="1200" height="38" fill="#38BDF8" opacity="0.12"/>
</svg>
